<svg xmlns="http://www.w3.org/2000/svg" fill-rule="evenodd" viewBox="0 0 1142 394" clip-rule="evenodd">
  <path d="M 165.00,0.21
           C 144.92,3.46 129.70,6.74 111.00,15.31
             59.31,38.98 22.90,84.77 7.43,139.00
             -0.36,166.28 -0.32,184.23 0.00,212.00
             0.17,225.96 5.53,249.59 10.00,263.00
             27.79,316.39 65.13,360.45 118.00,381.60
             132.42,387.37 155.54,393.82 171.00,394.00
             171.00,394.00 195.00,394.00 195.00,394.00
             218.21,393.96 248.70,383.70 269.00,372.69
             286.79,363.05 306.29,347.47 319.25,332.00
             329.79,319.42 339.37,305.72 346.73,291.00
             385.94,212.58 371.11,111.60 308.00,50.01
             294.80,37.14 278.48,25.98 262.00,17.75
             243.76,8.66 215.42,0.03 195.00,0.21
             195.00,0.21 165.00,0.21 165.00,0.21 Z
           M 173.00,99.29
           C 222.91,94.62 274.37,128.62 275.00,182.00
             275.00,182.00 275.00,191.00 275.00,191.00
             274.96,217.17 257.86,243.14 240.00,261.00
             226.79,274.21 200.68,294.76 181.00,293.96
             164.63,293.30 140.23,274.19 129.00,263.00
             116.47,250.51 105.43,235.64 99.06,219.00
             87.48,188.73 92.71,152.03 115.09,128.00
             121.19,121.45 130.08,114.99 138.00,110.78
             149.69,104.58 159.96,101.28 173.00,99.29 Z
           M 135.00,212.45
           C 124.57,214.62 120.39,222.03 127.39,231.00
             132.16,237.11 140.29,241.18 148.00,241.81
             158.85,242.71 167.29,234.44 160.85,224.00
             155.70,215.64 144.50,211.42 135.00,212.45 Z
           M 228.00,212.46
           C 220.87,214.05 213.45,216.96 208.99,223.09
             202.44,232.07 207.16,240.90 218.00,241.81
             227.33,242.60 239.02,237.14 243.77,229.00
             250.65,217.23 238.43,211.12 228.00,212.46 Z
           M 628.00,80.77
           C 614.66,84.51 608.07,95.48 608.00,109.00
             608.00,109.00 608.00,252.00 608.00,252.00
             608.00,253.98 607.77,257.82 609.02,259.40
             612.38,263.63 625.63,258.01 628.99,255.45
             637.49,248.96 639.98,238.14 640.00,228.00
             640.00,228.00 640.00,114.00 640.00,114.00
             640.00,114.00 640.00,87.00 640.00,87.00
             639.96,85.05 640.10,82.37 638.40,80.77
             636.26,79.33 630.55,80.11 628.00,80.77 Z
           M 957.31,104.06
           C 953.46,108.09 954.99,118.47 955.00,124.00
             955.00,126.30 954.62,130.41 956.60,131.98
             957.94,133.04 960.38,132.97 962.00,133.00
             962.00,133.00 978.00,133.00 978.00,133.00
             979.98,133.00 983.83,133.23 985.40,131.98
             988.95,129.15 984.43,119.08 982.64,116.00
             978.20,108.37 966.12,101.42 957.31,104.06 Z
           M 554.00,254.00
           C 554.34,256.05 554.36,257.68 556.31,258.98
             558.84,260.66 573.17,260.01 577.00,260.00
             579.54,259.99 583.48,260.32 585.40,258.40
             587.04,256.77 586.96,254.14 587.00,252.00
             587.00,252.00 587.00,236.00 587.00,236.00
             587.00,236.00 587.00,161.00 587.00,161.00
             587.00,158.31 587.34,153.75 585.26,151.75
             583.05,149.62 578.72,150.80 576.00,151.25
             568.15,152.55 560.78,154.21 557.00,162.00
             546.56,153.04 537.67,150.16 524.00,150.00
             497.23,149.69 462.27,151.80 447.34,178.00
             437.27,195.66 438.51,224.46 452.18,240.00
             462.94,252.22 482.84,259.81 499.00,260.00
             499.00,260.00 541.00,259.48 541.00,259.48
             545.92,258.43 549.64,256.29 554.00,254.00 Z
           M 800.00,157.00
           C 800.00,157.00 815.57,185.00 815.57,185.00
             815.57,185.00 844.23,236.00 844.23,236.00
             844.23,236.00 853.28,252.00 853.28,252.00
             854.77,254.60 856.54,258.17 859.21,259.69
             861.86,261.19 866.00,261.00 869.00,261.00
             869.00,261.00 877.00,261.00 877.00,261.00
             889.88,260.84 891.42,251.99 897.15,242.00
             897.15,242.00 931.14,182.00 931.14,182.00
             931.14,182.00 941.77,163.00 941.77,163.00
             942.87,160.91 944.96,157.73 943.85,155.34
             942.75,152.99 938.35,151.56 936.00,150.88
             928.10,148.60 918.73,150.08 912.00,154.80
             903.48,160.77 899.97,169.29 895.14,178.00
             895.14,178.00 873.00,221.00 873.00,221.00
             873.00,221.00 871.00,221.00 871.00,221.00
             868.62,214.51 864.05,207.19 860.78,201.00
             860.78,201.00 842.58,167.00 842.58,167.00
             834.79,153.19 836.41,151.02 825.00,151.00
             825.00,151.00 806.00,151.00 806.00,151.00
             804.42,151.01 801.84,150.91 800.41,151.57
             798.96,152.24 798.84,152.88 798.00,154.00
             786.44,148.54 770.76,148.26 761.32,158.18
             756.65,163.10 750.21,177.37 746.70,184.00
             746.70,184.00 727.00,222.00 727.00,222.00
             727.00,222.00 696.58,167.00 696.58,167.00
             694.60,163.51 689.46,152.80 686.62,151.02
             684.96,149.98 682.89,150.04 681.00,150.00
             681.00,150.00 661.00,150.00 661.00,150.00
             658.84,150.00 654.44,149.63 653.06,151.60
             651.57,153.72 653.40,157.07 654.44,159.00
             654.44,159.00 664.23,176.00 664.23,176.00
             664.23,176.00 695.00,230.00 695.00,230.00
             697.36,234.12 706.73,249.29 706.73,253.00
             706.73,256.19 700.84,265.76 699.00,269.00
             699.00,269.00 685.77,293.00 685.77,293.00
             685.77,293.00 679.70,305.00 679.70,305.00
             677.32,313.70 690.42,314.11 696.00,313.99
             717.17,313.50 724.62,292.59 733.42,277.00
             733.42,277.00 800.00,157.00 800.00,157.00 Z
           M 981.98,151.57
           C 963.78,153.15 955.03,163.98 955.00,182.00
             955.00,182.00 955.00,251.00 955.00,251.00
             955.00,252.99 954.77,256.81 956.02,258.40
             957.37,260.10 960.05,259.96 962.00,260.00
             962.00,260.00 978.00,260.00 978.00,260.00
             979.99,260.00 983.81,260.23 985.40,258.98
             987.93,256.97 987.00,243.58 987.00,240.00
             987.00,240.00 987.00,177.00 987.00,177.00
             987.00,177.00 987.00,161.00 987.00,161.00
             987.00,158.86 987.21,155.11 985.98,153.33
             984.76,151.56 983.79,151.82 981.98,151.57 Z
           M 1108.00,151.85
           C 1108.00,151.85 1077.00,175.80 1077.00,175.80
             1074.69,177.65 1067.01,184.54 1064.42,184.44
             1062.02,184.35 1052.38,175.57 1050.00,173.59
             1039.37,164.74 1027.78,152.19 1013.00,152.20
             1010.70,151.97 1007.18,151.92 1005.00,152.20
             1000.33,153.40 991.94,158.30 990.40,162.99
             988.93,167.48 997.00,172.58 1000.00,175.08
             1000.00,175.08 1024.00,194.92 1024.00,194.92
             1025.92,196.53 1032.03,201.14 1032.67,203.29
             1033.57,206.30 1027.49,212.64 1025.60,215.00
             1025.60,215.00 1001.42,245.00 1001.42,245.00
             997.41,249.90 987.22,259.76 1000.00,260.00
             1000.00,260.00 1019.00,260.00 1019.00,260.00
             1021.45,260.00 1024.72,260.13 1027.00,259.26
             1030.61,257.89 1034.20,253.71 1037.00,251.04
             1037.00,251.04 1051.00,238.17 1051.00,238.17
             1053.21,236.17 1060.45,229.12 1063.00,229.01
             1066.06,228.87 1075.29,237.49 1078.00,239.75
             1088.41,248.43 1099.75,260.08 1114.00,260.91
             1120.62,261.29 1126.73,259.03 1131.98,255.07
             1134.08,253.50 1137.26,250.95 1136.97,248.00
             1136.64,244.61 1129.64,239.61 1127.00,237.41
             1127.00,237.41 1104.00,218.27 1104.00,218.27
             1101.98,216.57 1095.85,212.17 1095.20,209.91
             1094.14,206.26 1104.08,196.88 1106.58,194.00
             1106.58,194.00 1130.72,167.00 1130.72,167.00
             1132.74,164.69 1139.85,157.22 1140.60,155.05
             1142.02,150.96 1137.66,151.05 1135.00,151.00
             1135.00,151.00 1114.00,151.00 1114.00,151.00
             1111.18,151.05 1110.71,151.11 1108.00,151.85 Z
           M 555.00,227.00
           C 555.00,227.00 507.00,227.00 507.00,227.00
             502.02,226.94 494.68,225.95 490.00,224.30
             468.98,216.89 471.62,197.79 481.04,190.63
             484.21,188.23 491.07,185.36 495.00,184.52
             498.52,183.76 508.22,183.01 512.00,183.00
             512.00,183.00 540.00,183.95 540.00,183.95
             544.78,184.55 551.28,186.72 553.83,191.18
             555.22,193.63 555.00,197.24 555.00,200.00
             555.00,200.00 555.00,227.00 555.00,227.00 Z" />
</svg>
