<svg xmlns="http://www.w3.org/2000/svg" fill-rule="evenodd" viewBox="0 0 399 134" clip-rule="evenodd">
    <path d="M 65.00,98.00
           C 65.00,98.00 65.00,102.00 65.00,102.00
             65.00,102.00 83.00,102.00 83.00,102.00
             83.00,102.00 83.00,41.00 83.00,41.00
             79.25,41.08 76.60,41.23 73.00,42.56
             70.49,43.49 67.62,45.61 65.00,45.37
             63.13,45.20 59.30,42.89 57.00,42.11
             53.41,40.88 50.71,41.01 47.00,41.00
             26.88,40.97 1.61,43.99 1.01,70.00
             0.51,92.04 15.42,101.97 36.00,102.00
             40.61,102.01 55.52,102.42 59.00,101.35 Z
		   M 66.00,85.00
           C 66.00,85.00 44.00,85.00 44.00,85.00
             39.01,84.99 36.95,84.86 32.00,83.91
             15.27,80.68 17.37,67.47 23.21,62.85
             29.76,57.67 42.87,58.99 51.00,59.00
             55.53,59.01 60.24,58.86 63.69,62.39
             66.36,65.14 66.00,85.00 66.00,85.00 Z"/>
  <path d="M 293.00,14.00
           C 293.00,14.00 293.00,30.00 293.00,30.00
             293.00,30.00 310.00,30.00 310.00,30.00
             309.02,19.26 303.40,14.94 293.00,14.00 Z
             61.47,100.59 62.95,99.45 65.00,98.00 Z"/>
  <path d="M 96.00,103.00
           C 108.18,102.40 112.86,95.69 113.00,84.00
             113.00,84.00 113.00,1.00 113.00,1.00
             99.51,1.13 96.02,7.46 96.00,20.00
             96.00,20.00 96.00,103.00 96.00,103.00 Z"/>
  <path d="M 120.00,41.00
           C 120.00,41.00 151.61,96.46 151.72,98.58
             151.83,100.67 135.42,128.77 137.65,131.15
             139.18,132.78 142.90,133.00 145.00,132.90
             153.23,132.50 157.45,127.63 161.53,121.00
             161.53,121.00 201.00,51.00 203.00,44.00
             203.00,44.00 205.00,44.00 205.00,44.00
             205.00,44.00 235.56,100.30 238.33,101.98
             240.43,103.25 244.54,103.04 247.00,103.00
             255.54,102.84 256.52,96.82 260.42,90.00
             260.42,90.00 284.21,49.12 286.00,43.00
             267.26,35.97 262.47,48.79 255.24,63.00
             255.24,63.00 245.00,82.00 245.00,82.00
             245.00,82.00 225.08,44.11 223.37,42.60
             221.11,40.61 204.49,42.46 204.00,42.78
             198.32,41.36 192.67,39.85 187.00,42.78
             180.89,45.50 163.00,82.00 163.00,82.00
             163.00,82.00 142.42,41.16 134.00,41.00
             134.00,41.00 120.00,41.00 120.00,41.00 Z"/>
  <path d="M 293.00,102.00
           C 293.00,102.00 310.00,102.00 310.00,102.00
             310.00,102.00 310.00,63.00 310.00,63.00
             310.00,63.00 309.00,41.00 309.00,41.00
             303.31,42.51 299.38,42.67 295.70,48.02
             292.21,53.09 293.00,60.10 293.00,66.00
             293.00,66.00 293.00,102.00 293.00,102.00 Z"/>
  <path d="M 312.00,48.00
           C 316.01,53.34 335.10,67.85 335.84,70.09
             336.88,73.23 332.45,77.69 330.60,80.00
             325.82,85.99 317.34,95.67 314.00,102.00
             317.69,102.00 330.31,102.39 333.00,101.40
             337.25,99.84 350.11,87.04 353.00,83.00
             353.00,83.00 359.00,88.25 359.00,88.25
             367.07,95.00 377.46,106.50 389.00,101.47
             392.68,99.87 394.18,98.49 396.00,95.00
             396.00,95.00 370.00,75.00 370.00,75.00
             370.00,75.00 398.00,41.00 398.00,41.00
             391.64,41.00 382.42,39.84 377.00,43.26
             377.00,43.26 357.11,59.20 355.00,59.43
             351.56,59.82 345.62,53.61 343.00,51.43
             332.23,42.48 323.88,36.97 312.00,48.00 Z"/>
</svg>